<svg viewBox="0 0 128 128" xmlns="http://www.w3.org/2000/svg" id="technology">
  <defs>
  <style>
    @media(prefers-color-scheme: dark) {
      :root { --color-logo-shape: #000000; --color-logo-base: #ffffff; }
    }
    body[data-color-scheme="dark"] {
      --color-logo-shape: #000000; --color-logo-base: #ffffff;
    }
  </style>
  <path id="surface" d="m 6,47 l 58,-47 58,47 -58,45 z"/>
  <path id="strut"   d="m 6,47 v 12 l 58,45 v -12 z"/>
  <path id="shape"   d="m59.5,70.3c-.7-.2-.7,1.6-3,5.2-.8-3.3-1.5-6.8-2.5-10-6.8-13-2.6-25.7-2.1-27-2.1-1.3-4.3-1.2-6.6-.6,3.3-5.6,8.1-7.7,11.9-7.9.4.2.3-.2,2.7-1.9,12.7-8.8,20.4-1,20.5-.9.1.4.4.2.6.3,4.1-.1,4.8.4,5,.6-.1.1-.2.3-.6.7-3.2,3-9.3,3.9-15.8,9.4,0-.8,0-1.7-.1-2.4-.5,0-1,.1-1.5.1.2,2.6.1,9.1-1,10-1.2-.2-2.3-4.9-3.3-1.9-.5.2-.9.5-1.4.7.5,1.1,1,2,1.4,2.8-6.4,8.8-7.2,17.8-7.2,18.2-.1.2,1.2,3.8,7,5.8-1,.8-2.5,1.7-3.9,1.9zm16.1-43.8c-1.2-1.4-3.5.5-2.2,2,1.4,1.4,3.5-.7,2.2-2z"/>
  </defs>
  <use href="#strut" fill="#9ee0ff"/>
  <use href="#strut" fill="#6bd0ff" y="12"/>
  <use href="#strut" fill="#38c0ff" y="24"/>
  <g transform="matrix(-1 0 0 1 128 0)">
    <use href="#strut" fill="#f29eff"/>
    <use href="#strut" fill="#eb6bff" y="12"/>
    <use href="#strut" fill="#e438ff" y="24"/>
  </g>
  <use href="#surface" style="fill: var(--color-logo-base, #000000);"/>
  <use href="#shape" style="fill: var(--color-logo-shape, #ffffff);"/>
</svg>

