<svg version="1.1" viewBox="0 0 128 128" xmlns="http://www.w3.org/2000/svg" id="technology">
  <defs>
  <style>
    @media(prefers-color-scheme:dark){:root{--color-logo-shape:#000;--color-logo-base:#fff;}}
    body[data-color-scheme="dark"]{--color-logo-shape:#000;--color-logo-base:#fff;}
    #d{fill:var(--color-logo-base,#000)}#h{fill:var(--color-logo-shape,#fff)}
  </style>
  <path id="d" d="M6,47l58-47,58,47-58,45z" />
  <path id="s" d="M6,47v12l58,45v-12z" />
  <path id="h" d="M59.5,70.34l-.24,0-.33.32-.1.21c-.54,1.5-1.38,3.33-2.31,4.68l-2.37-9.98-.1-.1c-3.41-6.48-5.49-17.17-2.36-26.36l.22-.62-.59-.32c-2.21-1.2-4.51-.7-5.88-.4l-.1.1c.13-.26.36-.57.65-1,.75-1.17,1.6-2.17,2.52-3.03c3.34-3.11,6.91-3.74,8.73-3.84l.29,0,.2-.19c.68-.64,1.44-1.21,2.2-1.74c12.68-8.73,20.4-.93,20.48-.85l.23.25.35,0c4.08-.1,4.86.47,4.99.6-.1.1-.13.29-.56.69c-1.91,1.79-6.94,3.95-6.98,3.98-3.24,1.44-6.19,3.27-8.8,5.45c0-.84,0-1.65-.1-2.36l-1.58.1c.1,1.25.19,2.6,0,3.64v1.75c0,.68-.1,1.33-.18,1.9v.24c-.27,1.87-.66,2.36-.77,2.45,0,0-.52,0-1.62-1.88l-.1-.1c-.44-.72-.97-1.7-1.603.05l-1.43.68c.53,1.12,1.01,2.08,1.47,2.87c-6.43,8.76-7.19,17.79-7.21,18.17l0,.2.1.21c1.41,3.12,4.89,4.74,6.9,5.44-1.02.73-2.52,1.67-3.93,1.86zM75.52,28.6c.61-.56.64-1.51.1-2.12-.56-.6-1.51-.64-2.12-.1c-.61.56-.64,1.51-.1,2.12.56.6,1.51.64,2.12.1z" />
  </defs>
  <use href="#s" fill="#38c0ff" y="24"/>
  <use href="#s" fill="#6bd0ff" y="12"/>
  <use href="#s" fill="#9ee0ff"/>
  <g transform="matrix(-1 0 0 1 128 0)">
    <use href="#s" fill="#e438ff" y="24"/>
    <use href="#s" fill="#eb6bff" y="12"/>
    <use href="#s" fill="#f29eff"/>
  </g>
  <use href="#d"/>
  <use href="#h"/>
</svg>
