<svg xmlns="http://www.w3.org/2000/svg" viewBox="0 0 480 324" aria-roledescription="flowchart-v2" style='font-family: "trebuchet ms", verdana, arial, sans-serif; font-size: 16px; text-align: center;' fill="#333">
    <style>
    .node rect {
        fill: #ECECFF;
        stroke: #9370DB;
        stroke-width: 1px;
    }

    .flowchart-label text {
        text-anchor: middle;
    }

    .flowchart-link {
        stroke: #333;
        fill: none;
    }

    .edgeLabel rect {
        opacity: 0.5;
        background-color: #e8e8e8;
        fill: #e8e8e8;
    }

    .cluster rect {
        fill: #ffffde;
        stroke: #aa3;
    }
    </style>
    <marker id="flowchart-pointEnd" style="stroke: #333;" viewBox="0 0 10 10" refX="10" refY="5" markerUnits="userSpaceOnUse" markerWidth="12" markerHeight="12" orient="auto">
        <path d="M 0 0 L 10 5 L 0 10 z"></path>
    </marker>
    <path d="M175.4,34L185.261,39.75C195.121,45.5,214.842,57,224.702,68.5C234.562,80,234.562,91.5,234.562,97.25L234.562,103" class="flowchart-link" marker-end="url(#flowchart-pointEnd)"></path>
    <path d="M117.098,34L107.238,39.75C97.378,45.5,77.657,57,67.797,71.333C57.937,85.666,57.937,102.833,57.937,120C57.937,137.166,57.937,154.333,57.937,171.5C57.937,188.666,57.937,205.833,57.937,221.416C57.937,237,57.937,251,71.357,262.166C84.776,273.333,111.615,281.666,125.035,285.833L138.455,290" class="flowchart-link" marker-end="url(#flowchart-pointEnd)"></path>
    <path d="M201.986,137L190.967,142.75C179.949,148.5,157.912,160,146.893,174.333C135.875,188.666,135.875,205.833,135.875,221.416C135.875,237,135.875,251,141.562,262.166C147.25,273.333,158.625,281.666,164.313,285.833L170,290" class="flowchart-link" marker-end="url(#flowchart-pointEnd)"></path>
    <path d="M234.562,137L234.562,142.75C234.562,148.5,234.562,160,234.562,174.333C234.562,188.666,234.562,205.833,234.562,221.416C234.562,237,234.562,251,230.459,262.166C226.357,273.333,218.151,281.666,214.048,285.833L209.946,290" class="flowchart-link" marker-end="url(#flowchart-pointEnd)"></path>
    <path d="M288.656,136.768L307.33,142.556C326,148.345,363.351,159.922,382.025,171.461C400.7,183,400.7,194.5,400.7,200.25L400.7,206" class="flowchart-link" marker-end="url(#flowchart-pointEnd)"></path>
    <path d="M400.7,240L400.7,244.166C400.7,248.333,400.7,256.666,376.192,265.793C351.686,274.921,302.673,284.842,278.166,289.802L253.66,294.763" class="flowchart-link" marker-end="url(#flowchart-pointEnd)"></path>
    <g class="edgeLabel" transform="translate(234.562, 68.5)">
        <g transform="translate(-73.914, -9.5)">
            <rect width="147.692" height="19"></rect>
            <text><tspan dy="1em">non-empty password</tspan></text>
        </g>
    </g>
    <g class="edgeLabel" transform="translate(57.937, 171.5)">
        <g transform="translate(-57.937, -9.5)">
            <rect width="115.769" height="19"></rect>
            <text><tspan dy="1em">empty password</tspan></text>
        </g>
    </g>
    <g class="edgeLabel" transform="translate(135.875, 223)">
        <g transform="translate(-26.375, -9.5)">
            <rect width="52.705" height="19"></rect>
            <text><tspan dy="1em">success</tspan></text>
        </g>
    </g>
    <g class="edgeLabel" transform="translate(234.562, 223)">
        <g transform="translate(-52.312, -9.5)">
            <rect width="104.535" height="19"></rect>
            <text><tspan dy="1em">failed (secure)</tspan></text>
        </g>
    </g>
    <g class="edgeLabel" transform="translate(400.7, 171.5)">
        <g transform="translate(-58.968, -9.5)">
            <rect width="117.832" height="19"></rect>
            <text><tspan dy="1em">failed (insecure)</tspan></text>
        </g>
    </g>
    <g class="node flowchart-label" transform="translate(146.25, 17)">
        <rect rx="17" ry="17" x="-64.46" y="-17" width="128.921" height="34"></rect>
        <g transform="translate(0, -9.5)">
            <text><tspan dy="1em">awaitingNonce</tspan></text>
        </g>
    </g>
    <g class="node flowchart-label" transform="translate(193.207, 307)">
        <rect rx="17" ry="17" x="-60.453" y="-17" width="120.906" height="34"></rect>
        <g transform="translate(0, -9.5)">
            <text><tspan dy="1em">passwordSent</tspan></text>
        </g>
    </g>
    <g class="node flowchart-label" transform="translate(234.562, 120)">
        <rect x="-54.093" y="-17" width="108.187" height="34"></rect>
        <g transform="translate(0, -9.5)">
            <text><tspan dy="1em">sentFastAuth</tspan></text>
        </g>
    </g>
    <g class="node flowchart-label" transform="translate(400.7, 223)">
        <rect x="-78.824" y="-17" width="157.648" height="34"></rect>
        <g transform="translate(0, -9.5)">
            <text><tspan dy="1em">requestedServerKey</tspan></text>
        </g>
    </g>
</svg>
