<svg viewBox="0 0 128 128" xmlns="http://www.w3.org/2000/svg" id="technology">
  <style>
    @media (prefers-color-scheme: light) {
      :root, body[data-color-scheme="auto"], body[data-color-scheme="light"] {
        --color-documentation-intro-accent-outer: #000;
        --color-documentation-intro-accent-inner: #fff;
      }
      body[data-color-scheme="dark"] {
        --color-documentation-intro-accent-outer: #fff;
        --color-documentation-intro-accent-inner: #000;
      }
    }
    @media (prefers-color-scheme: dark) {
      :root, body[data-color-scheme="auto"], body[data-color-scheme="dark"] {
        --color-documentation-intro-accent-outer: #fff;
        --color-documentation-intro-accent-inner: #000;
      }
      body[data-color-scheme="light"] {
        --color-documentation-intro-accent-outer: #000;
        --color-documentation-intro-accent-inner: #fff;
      }
    }
  </style>
  <title>MySQLNIO</title>
  <linearGradient id="a" x1="0" x2="1" y1="0.5" y2="0.5">
    <stop stop-color="#3dc4ff" offset="0"/>
    <stop stop-color="#e040fb" offset="1"/>
  </linearGradient>
  <path style="fill: #40c4ff; fill-opacity: 1.0;" d="m64.33,92.04c.8,1.91.2,5.24.4,7.7-0,1.86.1,6.16-.3,6.26.45-1.7-1.17-2.2-2.19-3.1-18.41-14.51-36.83-28.99-55.24-43.46v-12.44c19.11,15.01,38.22,30.03,57.33,45.04z"/>
  <path style="fill: #3dc4ff; fill-opacity: 1.0;" d="m64.66,116.2c-.73.7-1.59-.9-2.38-1.2-18.43-14.5-36.85-28.99-55.28-43.46v-12.44c19.11,15.01,38.22,30.03,57.33,45,.77.2.11,1.9.33,2.6v9.5z"/>
  <path style="fill: #3dc4ff; fill-opacity: 1.0;" d="m64.66,127.7c-.71.7-1.58-1-2.37-1.3-18.43-14.5-36.86-28.96-55.29-43.44v-11.76c19.11,15.01,38.22,30,57.33,45,.69-.6.17,1.7.33,2.3v9.2z"/>
  <path style="fill: #e040fb; fill-opacity: 1.0;" d="m64,92.04v12.46c19-15.04,38-30.05,57-45.06v-12.44c-19,15.01-38,30.03-57,45.04z"/>
  <path style="fill: #e040fb; fill-opacity: 1.0;" d="m121,71.54v-12.44c-19,15.01-38,30.03-57,45v12.5c19-15,38-30.05,57-45.06z"/>
  <path style="fill: #e040fb; fill-opacity: 1.0;" d="m121,83.3v-12.1c-19,15.01-38,30-57,45v11.8l57-44.7z"/>
  <path style="fill: #ffffff; fill-opacity: .25;" d="m64.66,116.2c-.73.7-1.59-.9-2.38-1.2-18.43-14.5-36.85-28.99-55.28-43.46v-12.44c19.11,15.01,38.22,30.03,57.33,45,.77.2.11,1.9.33,2.6v9.5z"/>
  <path style="fill: #ffffff; fill-opacity: 0.5;" d="m64.66,127.7c-.71.7-1.58-1-2.37-1.3-18.43-14.5-36.86-28.96-55.29-43.44v-11.76c19.11,15.01,38.22,30,57.33,45,.69-.6.17,1.7.33,2.3v9.2z"/>
  <path style="fill: #ffffff; fill-opacity: .25;" d="m121,71.54v-12.44c-19,15.01-38,30.03-57,45v12.5c19-15,38-30.05,57-45.06z"/>
  <path style="fill: #ffffff; fill-opacity: 0.5;" d="m121,83.3v-12.1c-19,15.01-38,30-57,45v11.8l57-44.7z"/>
  <path style="fill: var(--color-documentation-intro-accent-outer);" d="m7,46.84,55.66-46.84,58.34,46.84v.33l-57,44.83-57-44.83z"/>
  <path style="fill: var(--color-documentation-intro-accent-inner);" stroke="url(#a)" d="m59.5,70.34h-.24l-.33.32-.1.21c-.54,1.5-1.38,3.33-2.31,4.68l-2.37-9.98-.1-.1c-3.41-6.48-5.49-17.17-2.36-26.36l.22-.62-.59-.32c-2.21-1.2-4.51-.7-5.88-.4l-.1.1c.13-.26.36-.57.65-1,.75-1.17,1.6-2.17,2.52-3.03,3.34-3.11,6.91-3.74,8.73-3.84h.29l.2-.19c.68-.64,1.44-1.21,2.2-1.74,12.68-8.73,20.4-.93,20.48-.85l.23.25h.35c4.08-.1,4.86.47,4.99.6-.1.1-.13.29-.56.69-1.91,1.79-6.94,3.95-6.98,3.98-3.24,1.44-6.19,3.27-8.8,5.45,0-.84,0-1.65-.1-2.36l-1.58.1c.1,1.25,.19,2.6,0,3.64v.35.8.25.35c0,.68-.1,1.33-.18,1.9v.24c-.27,1.87-.66,2.36-.77,2.45,0,0-.52,0-1.62-1.88l-.1-.1c-.44-.72-.97-1.7-1.6-3.05l-1.43.68c.53,1.12,1.01,2.08,1.47,2.87-6.43,8.76-7.19,17.79-7.21,18.17v.2l.1.21c1.41,3.12,4.89,4.74,6.9,5.44-1.02.73-2.52,1.67-3.93,1.86zm16.02-41.74c.61-.56.64-1.51.1-2.12-.56-.6-1.51-.64-2.12-.1-.61.56-.63,1.52-.1,2.12.56.6,1.51.64,2.12.1z"/>
</svg>
