<svg viewBox="0 0 128 128" xmlns="http://www.w3.org/2000/svg" id="technology">
  <style>
    @media (prefers-color-scheme: light) {
      :root, body[data-color-scheme="auto"], body[data-color-scheme="light"] {
        --color-documentation-intro-accent-outer: #000;
        --color-documentation-intro-accent-inner: #fff;
      }
      body[data-color-scheme="dark"] {
        --color-documentation-intro-accent-outer: #fff;
        --color-documentation-intro-accent-inner: #000;
      }
    }
    @media (prefers-color-scheme: dark) {
      :root, body[data-color-scheme="auto"], body[data-color-scheme="dark"] {
        --color-documentation-intro-accent-outer: #fff;
        --color-documentation-intro-accent-inner: #000;
      }
      body[data-color-scheme="light"] {
        --color-documentation-intro-accent-outer: #000;
        --color-documentation-intro-accent-inner: #fff;
      }
    }
  </style>
  <defs>
    <path id="diam"  d="M 0,0 l 55.5,-47 58.5,47 -57, 45 z" />
    <path id="seg"   d="M 0,0 l    0, 12 57.0,45   0,-12 z" />
    <path id="shape" d="M 59.50,70.34
                        l -0.24,    0 -0.33, 0.32 -0.10, 0.21
                        c -0.54, 1.50 -1.38, 3.33 -2.31, 4.68 l -2.37,-9.98 -0.10,-0.10
                        c -3.41,-6.48 -5.49-17.17 -2.36-26.36 l  0.22,-0.62 -0.59,-0.32
                        c -2.21,-1.20 -4.51,-0.70 -5.88,-0.40 l -0.10, 0.10
                        c  0.13,-0.26  0.36,-0.57  0.65,-1.00    0.75,-1.17  1.60,-2.17  2.52,-3.03
                        c  3.34,-3.11  6.91,-3.74  8.73,-3.84 l  0.29,    0  0.20,-0.19
                        c  0.68,-0.64  1.44,-1.21  2.20,-1.74
                        c 12.68,-8.73 20.40,-0.93 20.48,-0.85 l  0.23, 0.25  0.35,    0
                        c  4.08,-0.10  4.86, 0.47  4.99, 0.60   -0.10, 0.10 -0.13, 0.29 -0.56, 0.69
                        c -1.91, 1.79 -6.94, 3.95 -6.98, 3.98   -3.24, 1.44 -6.19, 3.27 -8.80, 5.45
                        c     0,-0.84     0,-1.65 -0.10,-2.36 l -1.58, 0.10
                        c  0.10, 1.25  0.19, 2.60     0, 3.64 v  1.75
                        c     0, 0.68 -0.10, 1.33 -0.18, 1.90 v  0.24
                        c -0.27, 1.87 -0.66, 2.36 -0.77, 2.45       0,    0 -0.52,    0 -1.62,-1.88
                        l -0.10,-0.10
                        c -0.44,-0.72 -0.97,-1.70 -1.60,-3.05 l -1.43, 0.68
                        c  0.53, 1.12  1.01, 2.08  1.47, 2.87
                        c -6.43, 8.76 -7.19,17.79 -7.21,18.17 l     0, 0.20  0.10, 0.21
                        c  1.41, 3.12  4.89, 4.74  6.90, 5.44   -1.02, 0.73 -2.52, 1.67 -3.93, 1.86 z
                        M 75.52,28.60
                        c  0.61,-0.56  0.64,-1.51  0.10,-2.12   -0.56,-0.60 -1.51,-0.64 -2.12,-0.10
                        c -0.61, 0.56 -0.64, 1.51 -0.10, 2.12    0.56, 0.60  1.51, 0.64  2.12, 0.10 z
                        " />          
  </defs>
  <g transform="translate(7 47)">
    <use href="#seg" transform="translate(0  0)" fill="hsl(199, 99%, 61%)" />
    <use href="#seg" transform="translate(0 12)" fill="hsl(199, 99%, 71%)" />
    <use href="#seg" transform="translate(0 24)" fill="hsl(199, 99%, 81%)" />
    <g transform="translate(114 0) scale(-1 1)">
      <use href="#seg" transform="translate(0  0)" fill="hsl(292, 96%, 61%)" />
      <use href="#seg" transform="translate(0 12)" fill="hsl(292, 96%, 71%)" />
      <use href="#seg" transform="translate(0 24)" fill="hsl(292, 96%, 81%)" />
    </g>
    <use href="#diam" style="fill: var(--color-documentation-intro-accent-outer);" />
  </g>
  <use href="#shape" style="fill: var(--color-documentation-intro-accent-inner);" />
</svg>
